<svg width="65" height="45" viewBox="0 0 65 45" fill="none" xmlns="http://www.w3.org/2000/svg">
<path d="M42.9982 44.6285H0V0.444092H42.9982V15.5616H41.0049V2.49239H1.99122V42.5802H41.0049V29.4123H42.9982V44.6285Z" fill="#F41707"/>
<path d="M8.78369 17.999H10.7812V21.9109L13.6395 17.999H16.036L12.7536 22.1428L16.2972 26.978H13.7649L10.7812 22.7054V26.978H8.78369V17.999Z" fill="#F41707"/>
<path d="M21.5063 25.1269C23.1172 25.1269 23.953 23.9567 23.953 22.4881C23.953 20.895 22.8748 19.8493 21.5063 19.8493C20.1022 19.8493 19.0616 20.895 19.0616 22.4881C19.0616 23.9803 20.1502 25.1269 21.5063 25.1269ZM21.5063 17.9835C24.0867 17.9835 26.0132 19.7119 26.0132 22.4881C26.0132 25.1269 24.0867 26.9927 21.5063 26.9927C18.9279 26.9927 17.0015 25.2622 17.0015 22.4881C17.0015 19.961 18.8067 17.9835 21.5063 17.9835Z" fill="#F41707"/>
<path d="M34.4125 26.9773L30.2692 21.5903V26.9773H28.395V18.0004H29.9934L34.1388 23.411L34.1346 18.0004H36.0067L36.0109 26.9773H34.4125Z" fill="#F41707"/>
<path d="M38.4146 17.999H45.6544V19.9228H43.0322V26.978H41.0347V19.9228H38.4146V17.999Z" fill="#F41707"/>
<path d="M55.3424 23.1154C55.3424 25.8593 53.6458 26.9757 51.7737 26.9757C49.5276 26.9757 47.9668 25.6553 47.9668 23.0252V18.0033H49.9643V22.5894C49.9643 23.9871 50.3759 25.052 51.7737 25.052C52.9834 25.052 53.3449 24.1417 53.3449 22.7053V18.0033H55.3424V23.1154Z" fill="#F41707"/>
<path d="M59.7411 19.9528V21.941H60.4641C61.2267 21.941 61.8243 21.6575 61.8243 20.9018C61.8243 20.4015 61.5778 19.9507 60.6166 19.9507C60.3157 19.9507 60.1528 19.9399 59.7411 19.9528ZM57.7437 26.9757V18.0033C58.2305 18.0033 60.4641 18.0033 60.7148 18.0033C63.0989 18.0033 63.9472 19.2207 63.9472 20.876C63.9472 22.5421 62.9484 23.2227 62.4741 23.4675L65.0002 26.9757H62.5786L60.4766 23.8647H59.7411V26.9757H57.7437Z" fill="#F41707"/>
</svg>
